<svg xmlns="http://www.w3.org/2000/svg" xmlns:xlink="http://www.w3.org/1999/xlink" viewBox="20.14 14.63 285.44 285.44">
 <defs>
  <linearGradient id="af" x1="2.044" x2=".178" y1="-1.153" y2=".679" xlink:href="#a"/>
  <linearGradient id="ae" x1="2.183" x2="-.061" y1="-1.858" y2=".594" xlink:href="#a"/>
  <linearGradient id="ag" x1=".379" x2="-.106" y1=".667" y2="1.37">
   <stop stop-color="#fff" stop-opacity="0" offset="0"/>
   <stop stop-color="#fff" offset="1"/>
  </linearGradient>
  <linearGradient id="x" x1="-.016" x2=".608" y1="2.195" y2=".438" xlink:href="#a"/>
  <linearGradient id="ab" x1="2.107" x2=".388" y1="-1.32" y2=".891" xlink:href="#t"/>
  <linearGradient id="t">
   <stop stop-opacity=".455" offset="0"/>
   <stop stop-opacity="0" offset="1"/>
  </linearGradient>
  <linearGradient id="y" x1="2.982" x2=".303" y1="-2.923" y2=".709" xlink:href="#t"/>
  <linearGradient id="z" x1="-1.283" x2=".748" y1="3.167" y2=".474" xlink:href="#a"/>
  <linearGradient id="v" x1="1.388" x2=".32" y1="-.93" y2=".852" xlink:href="#a"/>
  <linearGradient id="s" x1="-.032" x2=".832" y1="2.148" y2=".445" xlink:href="#a"/>
  <linearGradient id="u" x2="0" y1="-.271" y2=".761" xlink:href="#r"/>
  <linearGradient id="r">
   <stop stop-opacity=".455" offset="0"/>
   <stop stop-color="#fff" stop-opacity=".462" offset="1"/>
  </linearGradient>
  <linearGradient id="ad" x1="2.062" x2=".306" y1="1.826" y2="-.238" xlink:href="#r"/>
  <linearGradient id="a">
   <stop stop-color="#fff" offset="0"/>
   <stop stop-color="#fff" stop-opacity="0" offset="1"/>
  </linearGradient>
  <linearGradient id="aa" x1=".488" x2=".69" y1="1.484" y2=".539" xlink:href="#a"/>
  <linearGradient id="ac" x1=".834" x2=".637" y1=".682" y2="-.121">
   <stop stop-opacity=".586" offset="0"/>
   <stop stop-opacity=".31" offset=".736"/>
   <stop stop-color="#5f5f5f" stop-opacity="0" offset="1"/>
  </linearGradient>
  <linearGradient id="w" x1=".489" x2=".84" y1=".008" y2="1.023">
   <stop stop-color="#868686" offset="0"/>
   <stop stop-color="#f3f3f3" offset=".394"/>
   <stop stop-color="#949494" offset=".479"/>
   <stop stop-color="#d3d3d3" offset="1"/>
  </linearGradient>
 </defs>
 <path d="m162.88 15.265c-78.425 0-142.1 63.641-142.1 142.07 0 78.425 63.675 142.1 142.1 142.1s142.07-63.675 142.07-142.1-63.641-142.07-142.07-142.07zm0 97.578c24.556 0 44.487 19.931 44.487 44.487s-19.931 44.487-44.487 44.487-44.487-19.931-44.487-44.487 19.931-44.487 44.487-44.487z" fill="url(#w)" fill-rule="evenodd" stroke="url(#ac)" stroke-opacity=".585" stroke-width="1.273"/>
 <path d="m161.75 28.26c-76.849 0-138.12 52.222-138.12 129.07 0 76.849 62.396 139.25 139.25 139.25 76.849 0 139.21-62.396 139.21-139.25 0-76.849-63.489-129.07-140.34-129.07zm1.1268 85.477c24.063 0 43.594 19.531 43.594 43.594s-19.531 43.594-43.594 43.594c-24.063-6.1e-5 -43.594-19.531-43.594-43.594s19.531-43.594 43.594-43.594z" fill="url(#aa)" fill-rule="evenodd" stroke-opacity=".208" stroke-width="1.21"/>
 <path d="m162.88 108.46c-26.974 0-48.869 21.894-48.869 48.869 0 26.974 21.894 48.869 48.869 48.869s48.869-21.894 48.869-48.869c0-26.974-21.894-48.869-48.869-48.869zm-0.52506 25.653c12.813 0 23.215 10.403 23.215 23.215s-10.403 23.215-23.215 23.215c-12.813-3.1e-5 -23.215-10.403-23.215-23.215 0-12.813 10.403-23.215 23.215-23.215z" fill="url(#ad)" fill-rule="evenodd" stroke="url(#u)" stroke-width=".849"/>
 <g fill-rule="evenodd" stroke-width="1.25">
  <path d="m155.69 206.19l-12.224 91.512c-25.956-3.625-77.59-28.772-92.955-52.033l73.791-57.352c0.75155 4.4322 21.395 17.297 31.387 17.874z" fill="url(#s)"/>
  <path d="m143.22 203.16l-28.659 87.644c-15.649-7.6899-33.703-15.399-46.922-28.272l60.308-70.01c3.4476 3.1289 9.583 7.8099 15.274 10.639z" fill="url(#v)"/>
  <path d="m168.73 107.59l12.224-91.512c25.956 3.625 77.59 28.772 92.955 52.033l-73.791 57.352c-0.75156-4.4322-21.395-17.297-31.387-17.874z" fill="url(#z)"/>
  <path d="m181.21 110.62l28.659-87.644c15.649 7.6899 32.166 16.896 45.169 30.289l-58.555 67.993c-3.4476-3.1289-9.583-7.8099-15.274-10.639z" fill="url(#y)"/>
 </g>
 <g fill-rule="evenodd" stroke-width="1.25">
  <path d="m207.27 135.86l83.713-38.934c10.91 23.829 17.495 80.882 6.1544 106.35l-88.046-31.342c3.3316-3.0182 3.0685-27.34-1.8217-36.074z" fill="url(#s)"/>
  <path d="m211.43 148.01l89.296-22.999c1.9381 17.329 4.3449 35.255 0.052307 53.422l-90.098-11.824c0.78241-4.5895 1.427-12.28 0.74942-18.598z" fill="url(#ab)"/>
  <path d="m117.15 177.92l-83.713 38.934c-10.91-23.829-17.495-80.882-6.1543-106.35l88.046 31.342c-3.3316 3.0182-3.0685 27.34 1.8217 36.074z" fill="url(#x)"/>
  <path d="m112.99 165.77l-89.296 22.999c-1.9381-17.329-3.0648-36.204 1.2278-54.371l88.818 12.773c-0.78244 4.5895-1.427 12.28-0.74941 18.598z" fill="url(#ag)"/>
 </g>
 <path d="m207.14 178.86l85.592 34.303c-8.6922 15.116-18.954 30.998-33.165 43.102l-64.037-62.856c3.3466-3.2366 8.4171-9.0543 11.61-14.549z" fill="url(#ae)" fill-rule="evenodd" stroke-width="1.25"/>
 <path d="m117.28 134.92l-84.795-33.108c8.6922-15.116 16.563-32.193 30.775-44.297l65.631 62.856c-3.3467 3.2366-8.4171 9.0543-11.61 14.549z" fill="url(#af)" fill-rule="evenodd" stroke-width="1.25"/>
</svg>