<svg xmlns="http://www.w3.org/2000/svg" version="1.0" preserveAspectRatio="xMidYMid meet" viewBox="4.03 27 297.97 328.82">

<g transform="translate(0.000000,403.000000) scale(0.100000,-0.100000)" fill="#000000" stroke="none">
<path d="M1911 3589 c-580 -92 -1061 -171 -1068 -173 -11 -5 -13 -194 -7 -1136 4 -668 3 -1130 -2 -1130 -5 0 -31 9 -59 19 -115 44 -260 33 -391 -28 -270 -126 -406 -350 -316 -522 98 -188 370 -197 630 -21 81 55 142 126 188 219 l39 78 5 792 c3 436 9 796 14 800 4 4 449 78 989 163 l982 156 3 -660 c1 -362 1 -661 -1 -662 -2 -2 -28 6 -58 17 -46 18 -70 20 -169 17 -102 -4 -124 -8 -192 -37 -155 -65 -284 -174 -339 -286 -23 -48 -30 -75 -30 -126 -1 -80 16 -123 71 -183 103 -112 282 -116 495 -12 134 66 212 141 273 263 l47 96 3 1264 2 1263 -27 -1 c-16 -1 -502 -77 -1082 -170z m1009 -312 l0 -193 -967 -153 c-533 -84 -978 -155 -990 -158 l-23 -5 0 195 0 196 48 7 c26 4 463 73 972 155 509 81 933 148 943 148 16 1 17 -15 17 -192z"/>
</g>
</svg>