<svg xmlns="http://www.w3.org/2000/svg" version="1.0" preserveAspectRatio="xMidYMid meet" viewBox="4.07 27 298.54 331.28">

<g transform="translate(0.000000,403.000000) scale(0.100000,-0.100000)" fill="#000000" stroke="none">
<path d="M1900 3586 l-1065 -171 4 -1143 c2 -665 0 -1142 -5 -1142 -5 0 -33 9 -62 20 -63 24 -210 27 -287 6 -172 -47 -353 -183 -415 -312 -32 -65 -39 -169 -15 -229 22 -60 108 -138 172 -156 107 -30 264 -2 408 74 92 49 204 165 251 261 l39 80 3 300 c2 166 6 679 10 1140 l7 840 955 152 c525 84 969 155 986 157 l31 5 8 -999 c4 -550 5 -1003 2 -1006 -3 -3 -30 4 -59 15 -156 59 -337 25 -515 -96 -75 -51 -163 -146 -193 -208 -32 -65 -39 -169 -15 -229 21 -57 107 -136 166 -155 106 -32 269 -3 414 73 92 49 204 165 251 261 l39 80 7 895 c5 493 5 1068 2 1279 l-6 382 -27 -1 c-14 -1 -505 -79 -1091 -173z"/>
</g>
</svg>