<svg xmlns="http://www.w3.org/2000/svg" version="1.0" preserveAspectRatio="xMidYMid meet" viewBox="81.34 44.12 158.52 296.8">

<g transform="translate(0.000000,403.000000) scale(0.100000,-0.100000)" fill="#000000" stroke="none">
<path d="M1617 3584 c-4 -4 -7 -519 -7 -1144 l0 -1137 -67 23 c-127 44 -255 29 -411 -47 -86 -42 -117 -63 -181 -127 -82 -82 -115 -136 -133 -223 -15 -74 7 -149 62 -212 106 -121 281 -128 500 -20 158 78 269 205 317 362 10 35 13 212 13 882 l0 837 43 -9 c63 -14 233 -101 305 -156 140 -108 233 -296 261 -531 19 -150 -5 -262 -121 -561 -32 -84 -57 -155 -55 -157 9 -9 60 78 101 172 57 129 120 326 141 439 13 67 16 117 12 195 -15 252 -95 403 -397 745 -224 254 -274 352 -289 575 l-6 95 -40 3 c-23 2 -44 0 -48 -4z"/>
</g>
</svg>